<svg preserveAspectRatio="none" width="100%" height="100%" overflow="visible" style="display: block;" viewBox="0 0 680.783 178.475" fill="none" xmlns="http://www.w3.org/2000/svg">
<g id="Vector">
<path d="M34.3474 125.009L24.0476 150.187H0L48.2499 35.7808H76.2318L124.659 150.187H100.456L90.1564 125.009H34.3474ZM82.7741 107.362L62.1745 57.1822L41.5749 107.362H82.7962H82.7741Z" fill="#FFFFFF"/>
<path d="M330.72 57.3365L313.06 68.4459C306.186 59.7881 295.4 54.0678 283.288 54.0678C261.539 54.0678 245.338 71.3833 245.338 92.9614C245.338 114.54 261.539 131.855 283.288 131.855C295.4 131.855 305.855 125.98 313.06 117.146L330.72 128.586C319.934 142.81 302.583 151.799 283.111 151.799C249.913 151.799 222.926 125.472 222.926 92.9614C222.926 60.4507 249.913 34.124 283.111 34.124C302.583 34.124 319.912 43.1131 330.72 57.3365Z" fill="#FFFFFF"/>
<path d="M430.889 125.009H375.102L364.802 150.187H340.755L389.005 35.7808H416.965L465.391 150.187H441.189L430.889 125.009ZM423.529 107.362L402.907 57.1822L382.286 107.362H423.529Z" fill="#FFFFFF"/>
<path d="M568.567 54.7307H504.447V87.0868H562.842V105.727H504.447V150.187H483.185V35.7808H568.567V54.7307Z" fill="#FFFFFF"/>
<path d="M679.479 54.7307H611.425V83.1776H674.395V101.31H611.425V131.215H680.783V150.165H590.162V35.7808H679.479V54.7307Z" fill="#FFFFFF"/>
<path d="M221.76 14.8961L201.082 7.09277L139.258 170.671L159.935 178.475L221.76 14.8961Z" fill="#FFFFFF"/>
<path d="M650.987 24.2947L653.617 17.4922L653.794 17.0284L660.359 0H641.417L637.306 10.6676L637.107 11.1314L632.045 24.2947H650.987Z" fill="#FFFFFF"/>
</g>
</svg>
