<svg width="137" height="137" viewBox="0 0 137 137" fill="none" xmlns="http://www.w3.org/2000/svg">
<circle cx="68.2394" cy="68.2394" r="65.2394" stroke="black" stroke-width="6"/>
<path d="M74.67 68V94.2667C74.8034 95.2667 74.47 96.3333 73.7034 97.0333C73.395 97.3423 73.0287 97.5875 72.6254 97.7548C72.2222 97.922 71.7899 98.0081 71.3534 98.0081C70.9168 98.0081 70.4845 97.922 70.0813 97.7548C69.678 97.5875 69.3117 97.3423 69.0034 97.0333L62.3034 90.3333C61.94 89.9778 61.6637 89.5431 61.4961 89.0632C61.3284 88.5833 61.2738 88.0711 61.3367 87.5667V68H61.2367L42.0367 43.4C41.4954 42.7051 41.2511 41.8242 41.3573 40.9498C41.4635 40.0753 41.9115 39.2785 42.6034 38.7333C43.2367 38.2667 43.9367 38 44.67 38H91.3367C92.07 38 92.77 38.2667 93.4034 38.7333C94.0952 39.2785 94.5432 40.0753 94.6494 40.9498C94.7556 41.8242 94.5113 42.7051 93.97 43.4L74.77 68H74.67Z" fill="black"/>
</svg>
