<svg width="137" height="137" viewBox="0 0 137 137" fill="none" xmlns="http://www.w3.org/2000/svg">
<circle cx="68.2394" cy="68.2394" r="65.2394" stroke="black" stroke-width="6"/>
<path d="M62.4168 44.1658C57.5766 44.1658 52.9347 46.0886 49.5121 49.5111C46.0896 52.9336 44.1668 57.5756 44.1668 62.4158C44.1668 67.256 46.0896 71.8979 49.5121 75.3205C52.9347 78.743 57.5766 80.6658 62.4168 80.6658C67.257 80.6658 71.899 78.743 75.3215 75.3205C78.7441 71.8979 80.6668 67.256 80.6668 62.4158C80.6668 57.5756 78.7441 52.9336 75.3215 49.5111C71.899 46.0886 67.257 44.1658 62.4168 44.1658ZM38.0835 62.4158C38.0841 58.5433 39.0088 54.7269 40.781 51.2837C42.5531 47.8405 45.1214 44.87 48.2725 42.6191C51.4235 40.3681 55.0663 38.9017 58.8981 38.3417C62.7299 37.7817 66.6399 38.1443 70.3034 39.3994C73.9668 40.6545 77.2778 42.7658 79.9612 45.5579C82.6445 48.3499 84.6228 51.7421 85.7315 55.4524C86.8402 59.1628 87.0474 63.0842 86.3358 66.8907C85.6242 70.6972 84.0144 74.279 81.6402 77.3382L98.0256 93.7237C98.5797 94.2973 98.8863 95.0657 98.8793 95.8632C98.8724 96.6607 98.5525 97.4236 97.9886 97.9875C97.4246 98.5515 96.6617 98.8714 95.8642 98.8783C95.0667 98.8852 94.2984 98.5786 93.7247 98.0246L77.3392 81.6391C73.7423 84.4317 69.434 86.1589 64.9042 86.6244C60.3744 87.0898 55.8048 86.2749 51.7152 84.2722C47.6255 82.2696 44.1799 79.1595 41.7701 75.2957C39.3603 71.4319 38.083 66.9695 38.0835 62.4158Z" fill="black"/>
</svg>
